<?xml version="1.0" encoding="utf-8"?>
<!-- Generator: Adobe Illustrator 16.0.0, SVG Export Plug-In . SVG Version: 6.00 Build 0)  -->
<!DOCTYPE svg PUBLIC "-//W3C//DTD SVG 1.1//EN" "http://www.w3.org/Graphics/SVG/1.1/DTD/svg11.dtd">
<svg version="1.1" id="Layer_1" xmlns="http://www.w3.org/2000/svg" xmlns:xlink="http://www.w3.org/1999/xlink" x="0px" y="0px"
	 width="321.44px" height="66.229px" viewBox="0 0 321.44 66.229" enable-background="new 0 0 321.44 66.229" xml:space="preserve">
<g>
	<g>
		<g>
			<path fill="#221F1F" d="M92.016,20.658h19.488c0.276,0,0.557-0.055,0.842-0.166c0.286-0.111,0.542-0.268,0.765-0.469
				c0.222-0.201,0.401-0.428,0.539-0.686c0.139-0.255,0.206-0.529,0.206-0.82v-1.271c0-1.382-0.784-2.073-2.352-2.073H98.216
				c-1.125,0-2.098-0.155-2.926-0.469c-0.826-0.313-1.504-0.75-2.033-1.318c-0.53-0.569-0.922-1.24-1.175-2.009
				c-0.255-0.769-0.383-1.622-0.383-2.561V7.647c0-0.872,0.142-1.692,0.429-2.46c0.286-0.769,0.704-1.439,1.255-2.007
				c0.552-0.57,1.229-1.021,2.035-1.356c0.805-0.333,1.739-0.5,2.798-0.5h19.456v4.18H98.216c-0.275,0-0.552,0.057-0.827,0.168
				c-0.275,0.113-0.525,0.268-0.747,0.469c-0.225,0.199-0.404,0.428-0.541,0.686c-0.139,0.255-0.208,0.529-0.208,0.82v1.168
				c0,1.405,0.772,2.106,2.321,2.106h13.288c1.123,0,2.093,0.163,2.909,0.485c0.815,0.328,1.493,0.771,2.035,1.339
				c0.541,0.57,0.941,1.24,1.207,2.009c0.266,0.769,0.398,1.599,0.398,2.491v1.271c0,0.916-0.149,1.756-0.445,2.527
				c-0.296,0.769-0.722,1.437-1.271,2.007c-0.552,0.569-1.235,1.013-2.051,1.338c-0.816,0.322-1.744,0.485-2.782,0.485H92.016
				V20.658z"/>
			<path fill="#221F1F" d="M142.851,5.503H132.55v19.372h-4.196V5.503h-10.205v-4.18h24.702V5.503z"/>
			<path fill="#221F1F" d="M166.504,24.875h-4.515l-2.322-9.636h-12.716l0.986-4.348h10.618l-0.828-3.244
				c-0.379-1.429-1.134-2.144-2.257-2.144h-6.104c-1.186,0-1.958,0.714-2.321,2.144l-4.195,17.228h-4.484l4.198-17.228
				c1.019-4.217,3.189-6.324,6.518-6.324h6.645c3.349,0,5.532,2.107,6.551,6.324L166.504,24.875z"/>
			<path fill="#221F1F" d="M178.331,7.345c0-0.647-0.105-1.114-0.316-1.406c-0.214-0.289-0.617-0.436-1.211-0.436h-4.291
				c-0.678,0-1.13,0.147-1.35,0.436c-0.224,0.292-0.336,0.737-0.336,1.338v17.597h-4.26V7.11c0-0.805,0.121-1.563,0.367-2.275
				c0.242-0.714,0.598-1.326,1.063-1.841c0.467-0.513,1.034-0.92,1.7-1.22c0.668-0.302,1.426-0.451,2.273-0.451h5.088
				c1.842,0,3.215,0.472,4.115,1.421c0.902,0.949,1.351,2.414,1.351,4.397v11.678c0,0.647,0.104,1.114,0.304,1.406
				c0.201,0.289,0.609,0.434,1.223,0.434h4.293c0.678,0,1.129-0.14,1.351-0.418c0.224-0.279,0.334-0.73,0.334-1.354V1.323h4.261
				v17.73c0,0.802-0.121,1.56-0.367,2.274c-0.242,0.715-0.597,1.333-1.063,1.857c-0.467,0.526-1.034,0.937-1.7,1.239
				c-0.667,0.298-1.426,0.451-2.272,0.451h-5.089c-1.844,0-3.216-0.473-4.115-1.421c-0.902-0.949-1.352-2.427-1.352-4.434V7.345z"/>
			<path fill="#221F1F" d="M195.463,1.323h21.396c2.076,0,3.588,0.49,4.531,1.47c0.941,0.983,1.414,2.486,1.414,4.516v11.51
				c0,2.05-0.461,3.572-1.383,4.567c-0.92,0.994-2.443,1.489-4.563,1.489h-21.396V1.323z M199.694,5.503v15.089h17.166
				c0.382,0,0.684-0.022,0.907-0.066c0.222-0.046,0.392-0.137,0.507-0.268c0.117-0.134,0.191-0.32,0.225-0.555
				c0.031-0.232,0.047-0.529,0.047-0.885V7.309c0-0.578-0.143-1.024-0.429-1.339c-0.286-0.309-0.704-0.467-1.257-0.467H199.694z"/>
			<path fill="#221F1F" d="M250.273,24.875h-4.513l-2.322-9.636h-12.714l0.982-4.348h10.619l-0.827-3.244
				c-0.382-1.429-1.135-2.144-2.256-2.144h-6.105c-1.186,0-1.961,0.714-2.318,2.144l-4.198,17.228h-4.481l4.193-17.228
				c1.018-4.217,3.189-6.324,6.52-6.324h6.646c3.347,0,5.53,2.107,6.548,6.324L250.273,24.875z"/>
			<path fill="#221F1F" d="M250.432,1.323h21.935c1.104,0,2.031,0.111,2.783,0.335c0.752,0.222,1.356,0.563,1.812,1.019
				c0.457,0.457,0.785,1.021,0.986,1.689c0.201,0.67,0.303,1.439,0.303,2.311v0.867c0,1.006-0.102,1.857-0.303,2.561
				c-0.201,0.702-0.535,1.277-1.003,1.723c-0.466,0.446-1.063,0.769-1.795,0.97c-0.729,0.201-1.626,0.302-2.685,0.302h-10.047
				c-0.615,0-1.039,0.111-1.272,0.336c-0.233,0.222-0.35,0.657-0.35,1.302v0.134c0,0.58,0.116,0.993,0.35,1.238
				s0.657,0.369,1.272,0.369h10.174c1.101,0,2.007,0.124,2.717,0.369c0.71,0.245,1.277,0.601,1.701,1.071
				c0.425,0.469,0.721,1.031,0.891,1.688c0.168,0.658,0.254,1.4,0.254,2.226v3.044h-4.196v-2.577c0-0.646-0.11-1.08-0.335-1.305
				c-0.221-0.225-0.609-0.335-1.158-0.335h-10.652c-0.975,0-1.795-0.116-2.463-0.349c-0.667-0.237-1.209-0.583-1.621-1.039
				c-0.414-0.457-0.711-1.032-0.891-1.723c-0.18-0.691-0.27-1.493-0.27-2.409v-0.902c0-1.852,0.406-3.206,1.223-4.065
				c0.816-0.858,2.189-1.29,4.117-1.29h10.523c0.613,0,1.039-0.121,1.271-0.369c0.232-0.242,0.35-0.655,0.35-1.235V7.141
				c0-0.645-0.117-1.081-0.35-1.302c-0.232-0.225-0.658-0.335-1.271-0.335h-17.771v19.372h-4.229V1.323z"/>
			<path fill="#221F1F" d="M279.17,1.323h21.396c2.077,0,3.587,0.49,4.531,1.47c0.942,0.983,1.413,2.486,1.413,4.516v11.51
				c0,2.05-0.46,3.572-1.382,4.567c-0.921,0.994-2.442,1.489-4.563,1.489H279.17V1.323z M283.401,5.503v15.089h17.165
				c0.382,0,0.685-0.022,0.905-0.066c0.225-0.046,0.393-0.137,0.511-0.268c0.116-0.134,0.189-0.32,0.222-0.555
				c0.031-0.232,0.048-0.529,0.048-0.885V7.309c0-0.578-0.144-1.024-0.43-1.339c-0.284-0.309-0.704-0.467-1.256-0.467H283.401z"/>
		</g>
		<g>
			<path fill="#221F1F" d="M99.36,49.574h12.557c2.185,0,3.821,0.5,4.912,1.487c1.092,0.996,1.638,2.607,1.638,4.836v1.237
				c0,1.986-0.545,3.546-1.638,4.685c-1.091,1.137-2.727,1.707-4.912,1.707H97.739c-2.098,0-3.609-0.498-4.53-1.488
				c-0.922-0.993-1.382-2.515-1.382-4.567V45.963c0-2.03,0.469-3.536,1.415-4.519c0.944-0.98,2.441-1.473,4.498-1.473h19.679v4.184
				H97.739c-0.552,0-0.969,0.157-1.256,0.47c-0.286,0.312-0.429,0.758-0.429,1.338v11.508c0,0.355,0.016,0.652,0.049,0.884
				c0.031,0.238,0.106,0.421,0.222,0.555c0.116,0.135,0.287,0.223,0.51,0.267c0.222,0.046,0.523,0.066,0.905,0.066h14.178
				c0.765,0,1.341-0.198,1.733-0.601c0.392-0.399,0.588-0.893,0.588-1.473v-1.271c0-0.779-0.189-1.32-0.571-1.622
				s-0.966-0.451-1.75-0.451H99.36V49.574z"/>
			<path fill="#221F1F" d="M119.262,39.972h21.934c1.104,0,2.03,0.113,2.783,0.336c0.751,0.225,1.356,0.564,1.812,1.021
				c0.457,0.456,0.784,1.021,0.986,1.688c0.2,0.668,0.302,1.439,0.302,2.309v0.869c0,1.005-0.102,1.856-0.302,2.558
				c-0.202,0.705-0.536,1.279-1.002,1.724c-0.465,0.448-1.065,0.771-1.796,0.972c-0.732,0.201-1.626,0.303-2.688,0.303h-10.044
				c-0.616,0-1.04,0.11-1.273,0.332c-0.233,0.225-0.349,0.66-0.349,1.305v0.137c0,0.578,0.116,0.99,0.349,1.235
				s0.657,0.369,1.273,0.369h10.173c1.1,0,2.006,0.124,2.717,0.368c0.711,0.246,1.277,0.602,1.701,1.07
				c0.424,0.467,0.721,1.032,0.891,1.69c0.169,0.657,0.254,1.4,0.254,2.222v3.047h-4.197V60.95c0-0.648-0.11-1.084-0.334-1.306
				c-0.222-0.222-0.609-0.335-1.161-0.335h-10.649c-0.976,0-1.797-0.116-2.465-0.351c-0.666-0.234-1.207-0.581-1.618-1.037
				c-0.416-0.459-0.712-1.031-0.891-1.723c-0.182-0.691-0.272-1.493-0.272-2.409v-0.902c0-1.852,0.408-3.205,1.225-4.064
				s2.188-1.287,4.118-1.287h10.522c0.615,0,1.04-0.123,1.271-0.369c0.235-0.247,0.351-0.657,0.351-1.237v-0.134
				c0-0.648-0.116-1.084-0.351-1.306c-0.232-0.222-0.656-0.335-1.271-0.335h-17.771v19.371h-4.227V39.972z"/>
			<path fill="#221F1F" d="M147.811,45.963c0-2.03,0.472-3.536,1.413-4.519c0.944-0.98,2.444-1.473,4.499-1.473h15.26
				c2.077,0,3.588,0.492,4.531,1.473c0.943,0.982,1.414,2.488,1.414,4.519v11.508c0,2.053-0.461,3.574-1.381,4.567
				c-0.924,0.99-2.445,1.488-4.564,1.488h-15.26c-2.098,0-3.608-0.498-4.53-1.488c-0.922-0.993-1.382-2.515-1.382-4.567V45.963z
				 M168.983,59.242c0.383,0,0.686-0.021,0.906-0.066c0.223-0.044,0.393-0.132,0.511-0.267c0.114-0.134,0.189-0.316,0.22-0.555
				c0.031-0.231,0.05-0.528,0.05-0.884V45.963c0-0.58-0.144-1.026-0.43-1.338c-0.288-0.313-0.705-0.47-1.257-0.47h-15.26
				c-0.551,0-0.97,0.157-1.256,0.47c-0.284,0.312-0.428,0.758-0.428,1.338v11.508c0,0.355,0.014,0.652,0.046,0.884
				c0.032,0.238,0.107,0.421,0.225,0.555c0.115,0.135,0.285,0.223,0.507,0.267c0.223,0.046,0.524,0.066,0.906,0.066H168.983z"/>
			<path fill="#221F1F" d="M197.006,59.176c0.226-0.044,0.392-0.132,0.51-0.267c0.115-0.134,0.19-0.316,0.223-0.555
				c0.032-0.231,0.047-0.528,0.047-0.884V39.972h4.229v17.499c0,2.053-0.461,3.574-1.385,4.567c-0.92,0.99-2.431,1.488-4.528,1.488
				h-14.274c-2.099,0-3.607-0.498-4.529-1.488c-0.924-0.993-1.383-2.515-1.383-4.567V39.972h4.228v17.499
				c0,0.355,0.016,0.652,0.048,0.884c0.032,0.238,0.107,0.421,0.223,0.555c0.116,0.135,0.287,0.223,0.508,0.267
				c0.223,0.046,0.523,0.066,0.906,0.066h14.274C196.483,59.242,196.784,59.222,197.006,59.176z"/>
			<path fill="#221F1F" d="M203.19,63.526V39.972h20.854c2.12,0,3.741,0.564,4.865,1.691c1.122,1.125,1.685,2.693,1.685,4.699v1.207
				c0,2.074-0.523,3.649-1.572,4.73c-1.051,1.083-2.708,1.625-4.978,1.625h-14.877v-4.25h14.877c0.933,0,1.56-0.155,1.878-0.467
				c0.316-0.313,0.477-0.859,0.477-1.639v-1.24c0-1.402-0.785-2.107-2.354-2.107h-16.627v19.305H203.19z"/>
		</g>
		<rect x="91.832" y="31.8" fill-rule="evenodd" clip-rule="evenodd" fill="#E8402F" width="229.608" height="2.391"/>
	</g>
	<g>
		<path fill="#221F1F" d="M0,0h81.426v45.517c0,11.42-8.396,20.713-18.592,20.713H18.589C8.336,66.229,0,56.937,0,45.517V0z"/>
		<path fill="#FEE322" d="M2.598,2.336h76.172v42.329c0,10.575-7.811,19.225-17.371,19.225H20.025
			c-9.564,0-17.427-8.649-17.427-19.225V2.336z"/>
		<path fill="#221F1F" d="M75.316,45.306c0,4.145-1.168,7.541-3.609,10.143c-2.445,2.603-5.315,3.879-8.713,3.879h-5.526
			c-3.4,0-6.321-1.276-8.71-3.879c-2.441-2.602-3.664-5.998-3.664-10.143V21.241c0-3.128-1.433-4.728-4.41-4.728
			c-2.868,0-4.353,1.599-4.353,4.728v24.065c0,4.145-1.17,7.541-3.561,10.143c-2.445,2.603-5.366,3.879-8.763,3.879h-5.468
			c-3.456,0-6.324-1.225-8.663-3.771c-2.441-2.71-3.664-6.106-3.664-10.251V7.165h7.968v38.141c0,3.133,1.488,4.673,4.358,4.673
			h5.468c2.865,0,4.3-1.54,4.3-4.673V21.241c0-4.142,1.224-7.487,3.668-10.143c2.39-2.656,5.309-3.933,8.708-3.933
			c3.454,0,6.375,1.276,8.82,3.878c2.388,2.602,3.609,6.001,3.609,10.197v24.065c0,3.133,1.435,4.673,4.354,4.673h5.526
			c2.868,0,4.355-1.54,4.355-4.673V7.165h7.967V45.306z"/>
	</g>
</g>
</svg>
